<svg width="20" height="20" viewBox="0 0 20 20" fill="none" xmlns="http://www.w3.org/2000/svg">
<path d="M10 5.125C7.31875 5.125 5.125 7.31875 5.125 10C5.125 12.6812 7.31875 14.875 10 14.875C12.6812 14.875 14.875 12.6812 14.875 10C14.875 7.31875 12.6812 5.125 10 5.125ZM10 0.25C4.63755 0.25 0.25 4.63755 0.25 10C0.25 15.3625 4.63755 19.75 10 19.75C15.3625 19.75 19.75 15.3625 19.75 10C19.75 4.63755 15.3625 0.25 10 0.25ZM10 17.8C5.71009 17.8 2.2 14.2899 2.2 10C2.2 5.71014 5.71009 2.2 10 2.2C14.2899 2.2 17.8 5.71009 17.8 10C17.8 14.2899 14.2899 17.8 10 17.8Z" fill="white"/>
</svg>
