<svg width="14" height="14" viewBox="0 0 14 14" fill="none" xmlns="http://www.w3.org/2000/svg">
<path d="M7 8.75C7.9665 8.75 8.75 7.9665 8.75 7C8.75 6.0335 7.9665 5.25 7 5.25C6.0335 5.25 5.25 6.0335 5.25 7C5.25 7.9665 6.0335 8.75 7 8.75Z" fill="#F8F8F8"/>
<path fill-rule="evenodd" clip-rule="evenodd" d="M0.77199 6.67724C1.63955 4.06917 4.09962 2.1875 7.0003 2.1875C9.89964 2.1875 12.3588 4.06742 13.2274 6.6736C13.2976 6.88422 13.2977 7.1121 13.2276 7.32276C12.36 9.93084 9.89997 11.8125 6.99928 11.8125C4.09994 11.8125 1.64082 9.93258 0.772181 7.3264C0.701982 7.11579 0.701915 6.8879 0.77199 6.67724ZM10.0625 7C10.0625 8.69137 8.69137 10.0625 7 10.0625C5.30863 10.0625 3.9375 8.69137 3.9375 7C3.9375 5.30863 5.30863 3.9375 7 3.9375C8.69137 3.9375 10.0625 5.30863 10.0625 7Z" fill="#F8F8F8"/>
</svg>
