<svg width="14" height="14" viewBox="0 0 14 14" fill="none" xmlns="http://www.w3.org/2000/svg">
<path fill-rule="evenodd" clip-rule="evenodd" d="M1.53125 3.9375C1.53125 3.57506 1.82506 3.28125 2.1875 3.28125C2.54994 3.28125 2.84375 3.57506 2.84375 3.9375C2.84375 4.29994 2.54994 4.59375 2.1875 4.59375C1.82506 4.59375 1.53125 4.29994 1.53125 3.9375ZM4.375 3.9375C4.375 3.69588 4.57088 3.5 4.8125 3.5H11.8125C12.0541 3.5 12.25 3.69588 12.25 3.9375C12.25 4.17912 12.0541 4.375 11.8125 4.375H4.8125C4.57088 4.375 4.375 4.17912 4.375 3.9375ZM1.53125 7C1.53125 6.63756 1.82506 6.34375 2.1875 6.34375C2.54994 6.34375 2.84375 6.63756 2.84375 7C2.84375 7.36244 2.54994 7.65625 2.1875 7.65625C1.82506 7.65625 1.53125 7.36244 1.53125 7ZM4.375 7C4.375 6.75838 4.57088 6.5625 4.8125 6.5625H11.8125C12.0541 6.5625 12.25 6.75838 12.25 7C12.25 7.24162 12.0541 7.4375 11.8125 7.4375H4.8125C4.57088 7.4375 4.375 7.24162 4.375 7ZM1.53125 10.0625C1.53125 9.70006 1.82506 9.40625 2.1875 9.40625C2.54994 9.40625 2.84375 9.70006 2.84375 10.0625C2.84375 10.4249 2.54994 10.7188 2.1875 10.7188C1.82506 10.7188 1.53125 10.4249 1.53125 10.0625ZM4.375 10.0625C4.375 9.82088 4.57088 9.625 4.8125 9.625H11.8125C12.0541 9.625 12.25 9.82088 12.25 10.0625C12.25 10.3041 12.0541 10.5 11.8125 10.5H4.8125C4.57088 10.5 4.375 10.3041 4.375 10.0625Z" fill="white"/>
</svg>
