<svg width="44" height="44" viewBox="0 0 44 44" fill="none" xmlns="http://www.w3.org/2000/svg">
<path fill-rule="evenodd" clip-rule="evenodd" d="M2.19995 11.5501C2.19995 8.81629 4.41614 6.6001 7.14995 6.6001H36.8499C39.5838 6.6001 41.7999 8.81629 41.7999 11.5501V32.4501C41.7999 35.1839 39.5838 37.4001 36.8499 37.4001H7.14995C4.41614 37.4001 2.19995 35.1839 2.19995 32.4501V11.5501ZM5.49995 24.3335V32.4501C5.49995 33.3614 6.23868 34.1001 7.14995 34.1001H36.8499C37.7612 34.1001 38.4999 33.3614 38.4999 32.4501V26.5336L33.6167 21.6503C32.9723 21.0059 31.9276 21.0059 31.2832 21.6503L27.0834 25.8501L28.1167 26.8834C28.761 27.5277 28.761 28.5725 28.1167 29.2168C27.4723 29.8612 26.4276 29.8612 25.7832 29.2168L14.3667 17.8003C13.7223 17.1559 12.6776 17.1559 12.0332 17.8003L5.49995 24.3335ZM26.3999 15.4001C26.3999 16.6151 25.415 17.6001 24.1999 17.6001C22.9849 17.6001 21.9999 16.6151 21.9999 15.4001C21.9999 14.1851 22.9849 13.2001 24.1999 13.2001C25.415 13.2001 26.3999 14.1851 26.3999 15.4001Z" fill="#585858"/>
</svg>
