<svg width="12" height="12" viewBox="0 0 12 12" fill="none" xmlns="http://www.w3.org/2000/svg">
<path fill-rule="evenodd" clip-rule="evenodd" d="M4.55936 0.440641C4.73021 0.611495 4.73021 0.888505 4.55936 1.05936L1.80622 3.8125H7.75C9.92462 3.8125 11.6875 5.57538 11.6875 7.75C11.6875 9.92462 9.92462 11.6875 7.75 11.6875H6C5.75838 11.6875 5.5625 11.4916 5.5625 11.25C5.5625 11.0084 5.75838 10.8125 6 10.8125H7.75C9.44137 10.8125 10.8125 9.44137 10.8125 7.75C10.8125 6.05863 9.44137 4.6875 7.75 4.6875H1.80622L4.55936 7.44064C4.73021 7.6115 4.73021 7.8885 4.55936 8.05936C4.3885 8.23021 4.1115 8.23021 3.94064 8.05936L0.440641 4.55936C0.269786 4.3885 0.269786 4.1115 0.440641 3.94064L3.94064 0.440641C4.1115 0.269786 4.3885 0.269786 4.55936 0.440641Z" fill="white"/>
</svg>
