<svg width="21" height="20" viewBox="0 0 21 20" fill="none" xmlns="http://www.w3.org/2000/svg">
<path d="M9.75 13.25C9.75 13.6642 10.0858 14 10.5 14C10.9142 14 11.25 13.6642 11.25 13.25L11.25 4.63642L14.2047 7.76497C14.4891 8.06611 14.9638 8.07967 15.265 7.79526C15.5661 7.51085 15.5797 7.03617 15.2953 6.73503L11.0453 2.23503C10.9036 2.08501 10.7063 2 10.5 2C10.2937 2 10.0964 2.08501 9.95474 2.23503L5.70474 6.73503C5.42033 7.03617 5.43389 7.51085 5.73503 7.79526C6.03617 8.07967 6.51085 8.06611 6.79526 7.76497L9.75 4.63642L9.75 13.25Z" fill="#0F172A"/>
<path d="M4 12.75C4 12.3358 3.66421 12 3.25 12C2.83579 12 2.5 12.3358 2.5 12.75V15.25C2.5 16.7688 3.73122 18 5.25 18H15.75C17.2688 18 18.5 16.7688 18.5 15.25V12.75C18.5 12.3358 18.1642 12 17.75 12C17.3358 12 17 12.3358 17 12.75V15.25C17 15.9404 16.4404 16.5 15.75 16.5H5.25C4.55964 16.5 4 15.9404 4 15.25V12.75Z" fill="#0F172A"/>
</svg>
